<svg width="128" height="128" viewBox="0 0 128 128" fill="none" xmlns="http://www.w3.org/2000/svg">
<path d="M44.9122 0.84375H1.28936L0 32.5264H1.72039C2.72364 9.75862 3.79378 5.08473 14.614 5.08473C15.8997 5.08473 17.765 5.08474 18.4784 5.37823C19.9833 5.93587 19.9833 7.49137 19.9833 10.7492V85.0031C19.9833 89.8164 19.9833 91.7975 12.4626 91.7975H9.59777V96.1779C12.5332 95.7523 19.7678 95.7523 23.0636 95.7523C26.3595 95.7523 33.7353 95.7523 36.6744 96.1779V91.7975H33.8096C26.2889 91.7975 26.2889 89.8164 26.2889 85.0031V10.7492C26.2889 7.91694 26.2889 5.93586 27.5783 5.37088C28.366 5.09206 30.2982 5.09206 31.6582 5.09206C42.4041 5.09206 43.4779 9.75861 44.4775 32.5337H46.2722L44.9122 0.84375Z" fill="#208E81"/>
<path d="M83.3034 91.6582H81.5124C79.7214 113.296 78.0753 123.62 65.8282 123.62H56.3717C53.0052 123.62 52.8603 122.629 52.8603 117.963V80.3366H59.2365C66.1849 80.3366 66.9727 84.8638 66.9727 96.8824H68.7637V59.5426H66.9727C66.9727 71.5685 66.1849 75.9489 59.2365 75.9489H52.8603V42.1458C52.8603 37.4792 53.0052 36.496 56.3717 36.496H65.5384C76.4998 36.496 78.3614 44.2736 79.5096 63.9303H81.2969L79.2904 32.2477H39.1826V36.4887H40.8324C46.3466 36.4887 46.4915 38.0442 46.4915 43.1363V116.972C46.4915 122.064 46.3466 123.62 40.8324 123.62H39.1826V128H80.2973L83.3071 91.6508L83.3034 91.6582Z" fill="#208E81"/>
<path d="M104.862 41.7202L114.676 13.4347C116.181 8.90755 118.614 4.3804 124.991 4.24099V0H107.943V4.24099C110.811 4.38774 112.387 7.49143 112.387 10.7492C112.387 12.158 112.242 12.4441 111.74 13.9997L103.573 37.7653L94.4063 10.6025C94.2614 10.1842 93.9047 9.04695 93.9047 8.48197C93.9047 6.78705 95.4801 4.3804 98.4899 4.24099V0C96.0523 0.425566 90.8243 0.42557 88.1044 0.42557C85.8824 0.42557 81.442 0.278819 78.7927 0V4.24099H80.1527C84.0914 4.24099 85.4513 5.23153 86.815 9.1937L99.9204 48.3751L88.2456 82.4571C87.2423 85.2893 85.0946 91.7975 77.9307 91.7975V96.1779H94.9785V91.7975C91.6863 91.6508 90.4676 87.8354 90.4676 85.2893C90.4676 84.0126 90.6831 83.455 91.1847 81.8921L101.284 52.3299L112.599 85.9937C112.743 86.5587 112.959 87.1236 112.959 87.5492C112.959 89.2515 111.384 91.6581 108.303 91.7975V96.1779C110.811 95.7524 116.039 95.7524 118.689 95.7524C121.698 95.7524 124.991 95.8991 128 96.1779V91.7975H126.64C122.913 91.7975 121.412 91.0858 119.907 86.7054L104.862 41.7202Z" fill="#208E81"/>
</svg>
